<svg xmlns="http://www.w3.org/2000/svg" viewBox="0 0 900 430">
<defs><linearGradient id="wall" x2="0" y2="1"><stop stop-color="#f0e5d9"/><stop offset="1" stop-color="#c9b9aa"/></linearGradient><linearGradient id="glass" x2="0" y2="1"><stop stop-color="#91a7b4"/><stop offset="1" stop-color="#4f6877"/></linearGradient></defs>
<rect width="900" height="430" fill="none"/>
<path d="M105 161H795V370H105Z" fill="url(#wall)" stroke="#aa988a" stroke-width="7"/>
<path d="M80 146H820L786 108H116Z" fill="#404d5b"/><path d="M80 146H820V177H80Z" fill="#34485b"/>
<rect x="293" y="71" width="314" height="79" rx="7" fill="#f8f8f6" stroke="#6d7e8a" stroke-width="5"/>
<text x="333" y="127" font-family="Arial,sans-serif" font-weight="900" font-size="63" fill="#ed262b">K</text>
<text x="395" y="121" font-family="Arial,sans-serif" font-weight="800" font-size="30" fill="#293f54">CITYMARKET</text>
<path d="M127 205H773V239H127Z" fill="#eae2d9"/>
<g fill="url(#glass)" stroke="#e6e9e7" stroke-width="7"><rect x="131" y="242" width="150" height="110"/><rect x="291" y="242" width="124" height="110"/><rect x="485" y="242" width="124" height="110"/><rect x="619" y="242" width="150" height="110"/></g>
<path d="M416 235H484V369H416Z" fill="#4c6a7c" stroke="#e6e9e7" stroke-width="8"/><path d="M450 239V367" stroke="#e6e9e7" stroke-width="5"/>
<path d="M48 374H852" stroke="#b7a99c" stroke-width="11"/><path d="M120 400H784" stroke="#c4c1bb" stroke-width="5"/>
</svg>